<svg width="109" height="48" viewBox="0 0 109 48" fill="none" xmlns="http://www.w3.org/2000/svg">
<path d="M70.7366 5.76003C74.8241 5.76003 78.6467 7.40003 81.5231 10.36C84.3995 13.32 85.9891 17.32 85.9891 21.52C85.9891 25.72 84.3995 29.68 81.5231 32.68C78.6467 35.68 74.8241 37.28 70.7366 37.28C66.6491 37.28 62.8266 35.64 59.9502 32.68C57.0738 29.68 55.4842 25.72 55.4842 21.52C55.4842 17.32 57.0738 13.36 59.9502 10.36C62.8266 7.36003 66.6491 5.76003 70.7366 5.76003ZM70.7366 5.28003C62.0318 5.28003 54.9922 12.56 54.9922 21.52C54.9922 30.48 62.0318 37.76 70.7366 37.76C79.4415 37.76 86.4811 30.48 86.4811 21.52C86.4811 12.56 79.4036 5.28003 70.7366 5.28003Z" fill="black" stroke="black" stroke-miterlimit="10"/>
<path d="M53.5921 37.88C62.2875 37.88 69.3365 30.6091 69.3365 21.64C69.3365 12.6709 62.2875 5.40002 53.5921 5.40002C44.8967 5.40002 37.8477 12.6709 37.8477 21.64C37.8477 30.6091 44.8967 37.88 53.5921 37.88Z" fill="#FF4923"/>
<path d="M39.8528 5.88002C43.9403 5.88002 47.7629 7.52002 50.6393 10.48C53.5157 13.44 55.1053 17.44 55.1053 21.64C55.1053 25.84 53.5157 29.8 50.6393 32.8C47.7629 35.8 43.9403 37.4 39.8528 37.4C35.7653 37.4 31.9049 35.8 29.0285 32.8C26.1521 29.8 24.5626 25.88 24.5626 21.64C24.5626 17.4 26.1521 13.48 29.0285 10.48C31.9049 7.48002 35.7653 5.88002 39.8528 5.88002ZM39.8528 5.40002C31.148 5.40002 24.1084 12.68 24.1084 21.64C24.1084 30.6 31.148 37.88 39.8528 37.88C48.5577 37.88 55.5973 30.6 55.5973 21.64C55.5973 12.68 48.5199 5.40002 39.8528 5.40002Z" fill="black" stroke="black" stroke-miterlimit="10"/>
<path d="M5.75293 21.88L55.5599 21.64" stroke="black" stroke-width="2" stroke-miterlimit="10"/>
<path d="M69.3359 21.64L103.247 21.52" stroke="black" stroke-width="2" stroke-miterlimit="10"/>
</svg>
