<?xml version="1.0" encoding="utf-8"?>
<!-- Generator: Adobe Illustrator 22.0.1, SVG Export Plug-In . SVG Version: 6.00 Build 0)  -->
<svg version="1.1" id="Layer_1" xmlns="http://www.w3.org/2000/svg" xmlns:xlink="http://www.w3.org/1999/xlink" x="0px" y="0px"
	 viewBox="0 0 288 120" style="enable-background:new 0 0 288 120;" xml:space="preserve">
<style type="text/css">
	.st0{fill:#FFFFFF;stroke:#FFFFFF;stroke-miterlimit:10;}
	.st1{fill:#FF4923;}
	.st2{fill:none;stroke:#FFFFFF;stroke-width:2;stroke-miterlimit:10;}
	.st3{fill:none;stroke:#F2F2F2;stroke-width:2;stroke-miterlimit:10;}
</style>
<g>
	<path class="st0" d="M186.9,14.4c10.8,0,20.9,4.1,28.5,11.5s11.8,17.4,11.8,27.9s-4.2,20.4-11.8,27.9c-7.6,7.5-17.7,11.5-28.5,11.5
		s-20.9-4.1-28.5-11.5c-7.6-7.5-11.8-17.4-11.8-27.9s4.2-20.4,11.8-27.9S176.1,14.4,186.9,14.4 M186.9,13.2
		c-23,0-41.6,18.2-41.6,40.6s18.6,40.6,41.6,40.6s41.6-18.2,41.6-40.6S209.8,13.2,186.9,13.2L186.9,13.2z"/>
</g>
<g>
	<ellipse class="st1" cx="141.6" cy="54.1" rx="41.6" ry="40.6"/>
</g>
<g>
	<path class="st0" d="M105.3,14.7c10.8,0,20.9,4.1,28.5,11.5s11.8,17.4,11.8,27.9s-4.2,20.4-11.8,27.9s-17.7,11.5-28.5,11.5
		S84.3,89.5,76.7,82S64.9,64.7,64.9,54.1s4.2-20.4,11.8-27.9S94.5,14.7,105.3,14.7 M105.3,13.5c-23,0-41.6,18.2-41.6,40.6
		s18.6,40.6,41.6,40.6s41.6-18.2,41.6-40.6S128.2,13.5,105.3,13.5L105.3,13.5z"/>
</g>
<g>
	<line class="st2" x1="15.2" y1="54.7" x2="146.8" y2="54.1"/>
</g>
<g>
	<line class="st3" x1="183.2" y1="54.1" x2="272.8" y2="53.8"/>
</g>
</svg>
